  0
SECTION
  2
HEADER
  9
$ACADVER
  1
AC1009
  9
$DWGCODEPAGE
  3
ansi_1252
  9
$INSBASE
 10
0.0
 20
0.0
 30
0.0
  9
$EXTMIN
 10
-462.8387177691691
 20
-758.6713799302879
 30
0.0
  9
$EXTMAX
 10
-48.81293210529746
 20
-659.2281708641801
 30
0.0
  9
$LIMMIN
 10
0.0
 20
0.0
  9
$LIMMAX
 10
12.0
 20
9.0
  9
$ORTHOMODE
 70
     0
  9
$REGENMODE
 70
     1
  9
$FILLMODE
 70
     1
  9
$QTEXTMODE
 70
     0
  9
$MIRRTEXT
 70
     1
  9
$DRAGMODE
 70
     2
  9
$LTSCALE
 40
1.0
  9
$OSMODE
 70
    37
  9
$ATTMODE
 70
     1
  9
$TEXTSIZE
 40
0.2
  9
$TRACEWID
 40
0.05
  9
$TEXTSTYLE
  7
STANDARD
  9
$CLAYER
  8
DEFAULT
  9
$CELTYPE
  6
BYLAYER
  9
$CECOLOR
 62
   256
  9
$DIMSCALE
 40
1.0
  9
$DIMASZ
 40
0.18
  9
$DIMEXO
 40
0.0625
  9
$DIMDLI
 40
0.38
  9
$DIMRND
 40
0.0
  9
$DIMDLE
 40
0.0
  9
$DIMEXE
 40
0.18
  9
$DIMTP
 40
0.0
  9
$DIMTM
 40
0.0
  9
$DIMTXT
 40
0.18
  9
$DIMCEN
 40
0.09
  9
$DIMTSZ
 40
0.0
  9
$DIMTOL
 70
     0
  9
$DIMLIM
 70
     0
  9
$DIMTIH
 70
     1
  9
$DIMTOH
 70
     1
  9
$DIMSE1
 70
     0
  9
$DIMSE2
 70
     0
  9
$DIMTAD
 70
     0
  9
$DIMZIN
 70
     0
  9
$DIMBLK
  1

  9
$DIMASO
 70
     1
  9
$DIMSHO
 70
     1
  9
$DIMPOST
  1

  9
$DIMAPOST
  1

  9
$DIMALT
 70
     0
  9
$DIMALTD
 70
     2
  9
$DIMALTF
 40
25.4
  9
$DIMLFAC
 40
1.0
  9
$DIMTOFL
 70
     0
  9
$DIMTVP
 40
0.0
  9
$DIMTIX
 70
     0
  9
$DIMSOXD
 70
     0
  9
$DIMSAH
 70
     0
  9
$DIMBLK1
  1

  9
$DIMBLK2
  1

  9
$DIMSTYLE
  2
STANDARD_ACAD
  9
$DIMCLRD
 70
     0
  9
$DIMCLRE
 70
     0
  9
$DIMCLRT
 70
     0
  9
$DIMTFAC
 40
1.0
  9
$DIMGAP
 40
0.09
  9
$LUNITS
 70
     2
  9
$LUPREC
 70
     2
  9
$SKETCHINC
 40
0.1
  9
$FILLETRAD
 40
0.0
  9
$AUNITS
 70
     0
  9
$AUPREC
 70
     0
  9
$MENU
  1
.
  9
$ELEVATION
 40
0.0
  9
$PELEVATION
 40
0.0
  9
$THICKNESS
 40
0.0
  9
$LIMCHECK
 70
     0
  9
$CHAMFERA
 40
0.0
  9
$CHAMFERB
 40
0.0
  9
$SKPOLY
 70
     0
  9
$TDCREATE
 40
2460062.72734588
  9
$TDUPDATE
 40
2460062.727362639
  9
$TDINDWG
 40
0.0000000116
  9
$TDUSRTIMER
 40
0.0000000116
  9
$USRTIMER
 70
     1
  9
$ANGBASE
 50
0.0
  9
$ANGDIR
 70
     0
  9
$PDMODE
 70
     0
  9
$PDSIZE
 40
0.0
  9
$PLINEWID
 40
0.0
  9
$COORDS
 70
     1
  9
$SPLFRAME
 70
     0
  9
$SPLINETYPE
 70
     6
  9
$SPLINESEGS
 70
     8
  9
$ATTDIA
 70
     0
  9
$ATTREQ
 70
     1
  9
$HANDLING
 70
     1
  9
$HANDSEED
  5
BE
  9
$SURFTAB1
 70
     6
  9
$SURFTAB2
 70
     6
  9
$SURFTYPE
 70
     6
  9
$SURFU
 70
     6
  9
$SURFV
 70
     6
  9
$UCSNAME
  2

  9
$UCSORG
 10
0.0
 20
0.0
 30
0.0
  9
$UCSXDIR
 10
1.0
 20
0.0
 30
0.0
  9
$UCSYDIR
 10
0.0
 20
1.0
 30
0.0
  9
$PUCSNAME
  2

  9
$PUCSORG
 10
0.0
 20
0.0
 30
0.0
  9
$PUCSXDIR
 10
1.0
 20
0.0
 30
0.0
  9
$PUCSYDIR
 10
0.0
 20
1.0
 30
0.0
  9
$USERI1
 70
     0
  9
$USERI2
 70
     0
  9
$USERI3
 70
     0
  9
$USERI4
 70
     0
  9
$USERI5
 70
     0
  9
$USERR1
 40
0.0
  9
$USERR2
 40
0.0
  9
$USERR3
 40
0.0
  9
$USERR4
 40
0.0
  9
$USERR5
 40
0.0
  9
$WORLDVIEW
 70
     1
  9
$SHADEDGE
 70
     3
  9
$SHADEDIF
 70
    70
  9
$TILEMODE
 70
     1
  9
$MAXACTVP
 70
    64
  9
$PLIMCHECK
 70
     0
  9
$PEXTMIN
 10
1.000000000000000E+20
 20
1.000000000000000E+20
 30
1.000000000000000E+20
  9
$PEXTMAX
 10
-1.000000000000000E+20
 20
-1.000000000000000E+20
 30
-1.000000000000000E+20
  9
$PLIMMIN
 10
0.0
 20
0.0
  9
$PLIMMAX
 10
12.0
 20
9.0
  9
$UNITMODE
 70
     0
  9
$VISRETAIN
 70
     1
  9
$PLINEGEN
 70
     0
  9
$PSLTSCALE
 70
     1
  0
ENDSEC
  0
SECTION
  2
TABLES
  0
TABLE
  2
VPORT
 70
     1
  0
VPORT
  2
*ACTIVE
 70
     0
 10
0.0
 20
0.0
 11
1.0
 21
1.0
 12
10.42990654205607
 22
4.5
 13
0.0
 23
0.0
 14
0.5
 24
0.5
 15
0.5
 25
0.5
 16
0.0
 26
0.0
 36
1.0
 17
0.0
 27
0.0
 37
0.0
 40
9.0
 41
1.972972972850329
 42
50.0
 43
0.0
 44
0.0
 50
0.0
 51
0.0
 71
     0
 72
   100
 73
     1
 74
     3
 75
     0
 76
     0
 77
     0
 78
     0
  0
ENDTAB
  0
TABLE
  2
LTYPE
 70
     1
  0
LTYPE
  2
CONTINUOUS
 70
     0
  3
Solid line
 72
    65
 73
     0
 40
0.0
  0
ENDTAB
  0
TABLE
  2
LAYER
 70
     2
  0
LAYER
  2
0
 70
     0
 62
     7
  6
CONTINUOUS
  0
LAYER
  2
DEFAULT
 70
     0
 62
     7
  6
CONTINUOUS
  0
ENDTAB
  0
TABLE
  2
STYLE
 70
     1
  0
STYLE
  2
STANDARD
 70
     0
 40
0.0
 41
1.0
 50
0.0
 71
     0
 42
0.2
  3
txt
  4

  0
ENDTAB
  0
TABLE
  2
VIEW
 70
     0
  0
ENDTAB
  0
TABLE
  2
UCS
 70
     0
  0
ENDTAB
  0
TABLE
  2
APPID
 70
     2
  0
APPID
  2
ACAD
 70
     0
  0
APPID
  2
RHINO
 70
     0
  0
ENDTAB
  0
TABLE
  2
DIMSTYLE
 70
     1
  0
DIMSTYLE
  2
STANDARD_ACAD
 70
     0
  3

  4

  5

  6

  7

 40
1.0
 41
0.18
 42
0.0625
 43
0.38
 44
0.18
 45
0.0
 46
0.0
 47
0.0
 48
0.0
140
0.18
141
0.09
142
0.0
143
25.4
144
1.0
145
0.0
146
1.0
147
0.09
 71
     0
 72
     0
 73
     1
 74
     1
 75
     0
 76
     0
 77
     0
 78
     0
170
     0
171
     2
172
     0
173
     0
174
     0
175
     0
176
     0
177
     0
178
     0
  0
ENDTAB
  0
ENDSEC
  0
SECTION
  2
BLOCKS
  0
BLOCK
  8
0
  2
$MODEL_SPACE
 70
     0
 10
0.0
 20
0.0
 30
0.0
  3
$MODEL_SPACE
  1

  0
ENDBLK
  5
21
  8
0
  0
BLOCK
 67
     1
  8
0
  2
$PAPER_SPACE
 70
     0
 10
0.0
 20
0.0
 30
0.0
  3
$PAPER_SPACE
  1

  0
ENDBLK
  5
1D
 67
     1
  8
0
  0
ENDSEC
  0
SECTION
  2
ENTITIES
  0
POLYLINE
  5
60
  8
DEFAULT
 66
     1
 10
0.0
 20
0.0
 30
0.0
 70
     1
  0
VERTEX
  5
61
  8
DEFAULT
 10
-457.3745716259235
 20
-738.1636822306702
 30
0.0
  0
VERTEX
  5
62
  8
DEFAULT
 10
-431.9309140180764
 20
-756.2643448905641
 30
0.0
 42
0.1558275237817439
  0
VERTEX
  5
63
  8
DEFAULT
 10
-424.395060161322
 20
-758.6713799302879
 30
0.0
  0
VERTEX
  5
64
  8
DEFAULT
 10
-369.8959660695455
 20
-758.6713799302879
 30
0.0
 42
0.1558275237817503
  0
VERTEX
  5
65
  8
DEFAULT
 10
-362.3601122127912
 20
-756.2643448905641
 30
0.0
  0
VERTEX
  5
66
  8
DEFAULT
 10
-336.916454604944
 20
-738.1636822306702
 30
0.0
 42
0.2427194966086457
  0
VERTEX
  5
67
  8
DEFAULT
 10
-331.4523084616984
 20
-727.5707172703943
 30
0.0
  0
VERTEX
  5
68
  8
DEFAULT
 10
-331.4523084616985
 20
-691.6859485780211
 30
0.0
 42
0.2427194966086604
  0
VERTEX
  5
69
  8
DEFAULT
 10
-336.9164546049439
 20
-681.092983617745
 30
0.0
  0
VERTEX
  5
6A
  8
DEFAULT
 10
-362.3601122127911
 20
-662.9923209578511
 30
0.0
 42
0.1558275237817796
  0
VERTEX
  5
6B
  8
DEFAULT
 10
-369.8959660695455
 20
-660.5852859181272
 30
0.0
  0
VERTEX
  5
6C
  8
DEFAULT
 10
-424.3950601613217
 20
-660.5852859181273
 30
0.0
 42
0.1558275237817763
  0
VERTEX
  5
6D
  8
DEFAULT
 10
-431.9309140180765
 20
-662.9923209578512
 30
0.0
  0
VERTEX
  5
6E
  8
DEFAULT
 10
-457.3745716259235
 20
-681.092983617745
 30
0.0
 42
0.2427194966086568
  0
VERTEX
  5
6F
  8
DEFAULT
 10
-462.8387177691691
 20
-691.6859485780212
 30
0.0
  0
VERTEX
  5
70
  8
DEFAULT
 10
-462.838717769169
 20
-727.5707172703941
 30
0.0
 42
0.2427194966086928
  0
SEQEND
  5
71
  8
DEFAULT
  0
POLYLINE
  5
72
  8
DEFAULT
 66
     1
 10
0.0
 20
0.0
 30
0.0
 70
     1
  0
VERTEX
  5
73
  8
DEFAULT
 10
-393.8674152383022
 20
-755.1667773171996
 30
0.0
  0
VERTEX
  5
74
  8
DEFAULT
 10
-393.8674152383022
 20
-742.4987773171996
 30
0.0
  0
VERTEX
  5
75
  8
DEFAULT
 10
-380.0183152383021
 20
-742.4987773171996
 30
0.0
  0
VERTEX
  5
76
  8
DEFAULT
 10
-380.0183152383021
 20
-755.1667773171996
 30
0.0
  0
SEQEND
  5
77
  8
DEFAULT
  0
POLYLINE
  5
78
  8
DEFAULT
 66
     1
 10
0.0
 20
0.0
 30
0.0
 70
     1
  0
VERTEX
  5
79
  8
DEFAULT
 10
-133.6360658751189
 20
-753.8096622632526
 30
0.0
  0
VERTEX
  5
7A
  8
DEFAULT
 10
-97.37893888190114
 20
-753.8096622632526
 30
0.0
  0
VERTEX
  5
7B
  8
DEFAULT
 10
-97.37893888190125
 20
-736.4085585204698
 30
0.0
  0
VERTEX
  5
7C
  8
DEFAULT
 10
-70.49921572622723
 20
-736.4085585204698
 30
0.0
  0
VERTEX
  5
7D
  8
DEFAULT
 10
-70.49921572622723
 20
-723.8685585204698
 30
0.0
  0
VERTEX
  5
7E
  8
DEFAULT
 10
-159.0640157262272
 20
-723.8685585204698
 30
0.0
  0
VERTEX
  5
7F
  8
DEFAULT
 10
-159.0640157262272
 20
-736.4085585204698
 30
0.0
  0
VERTEX
  5
80
  8
DEFAULT
 10
-133.6360658751191
 20
-736.4085585204698
 30
0.0
  0
SEQEND
  5
81
  8
DEFAULT
  0
POLYLINE
  5
82
  8
DEFAULT
 66
     1
 10
0.0
 20
0.0
 30
0.0
 70
     1
  0
VERTEX
  5
83
  8
DEFAULT
 10
-174.7351952695225
 20
-736.8065671767232
 30
0.0
 42
-0.2427194966086744
  0
VERTEX
  5
84
  8
DEFAULT
 10
-180.199341412768
 20
-726.2136022164469
 30
0.0
  0
VERTEX
  5
85
  8
DEFAULT
 10
-180.199341412768
 20
-690.3288335240742
 30
0.0
 42
-0.2427194966086496
  0
VERTEX
  5
86
  8
DEFAULT
 10
-174.7351952695224
 20
-679.735868563798
 30
0.0
  0
VERTEX
  5
87
  8
DEFAULT
 10
-149.2915376616755
 20
-661.6352059039041
 30
0.0
 42
-0.1558275237817854
  0
VERTEX
  5
88
  8
DEFAULT
 10
-141.7556838049207
 20
-659.2281708641802
 30
0.0
  0
VERTEX
  5
89
  8
DEFAULT
 10
-87.25658971314452
 20
-659.2281708641801
 30
0.0
 42
-0.1558275237817378
  0
VERTEX
  5
8A
  8
DEFAULT
 10
-79.72073585639006
 20
-661.635205903904
 30
0.0
  0
VERTEX
  5
8B
  8
DEFAULT
 10
-54.27707824854291
 20
-679.7358685637979
 30
0.0
 42
-0.2427194966086679
  0
VERTEX
  5
8C
  8
DEFAULT
 10
-48.81293210529747
 20
-690.3288335240741
 30
0.0
  0
VERTEX
  5
8D
  8
DEFAULT
 10
-48.81293210529746
 20
-726.2136022164473
 30
0.0
 42
-0.2427194966086361
  0
VERTEX
  5
8E
  8
DEFAULT
 10
-54.27707824854301
 20
-736.8065671767232
 30
0.0
  0
VERTEX
  5
8F
  8
DEFAULT
 10
-79.72073585639019
 20
-754.907229836617
 30
0.0
 42
-0.1558275237817091
  0
VERTEX
  5
90
  8
DEFAULT
 10
-87.25658971314452
 20
-757.3142648763409
 30
0.0
  0
VERTEX
  5
91
  8
DEFAULT
 10
-141.755683804921
 20
-757.3142648763409
 30
0.0
 42
-0.1558275237817394
  0
VERTEX
  5
92
  8
DEFAULT
 10
-149.2915376616754
 20
-754.907229836617
 30
0.0
  0
SEQEND
  5
93
  8
DEFAULT
  0
CIRCLE
  5
94
  8
DEFAULT
 10
-78.10889097537239
 20
-701.2716535120104
 30
0.0
 40
5.500000000000021
  0
CIRCLE
  5
95
  8
DEFAULT
 10
-150.9033825426931
 20
-701.2716535120105
 30
0.0
 40
5.500000000000163
  0
CIRCLE
  5
96
  8
DEFAULT
 10
-114.505889410078
 20
-696.2716535120105
 30
0.0
 40
2.5
  0
POLYLINE
  5
97
  8
DEFAULT
 66
     1
 10
0.0
 20
0.0
 30
0.0
 70
     1
  0
VERTEX
  5
98
  8
DEFAULT
 10
-233.3677553294495
 20
-737.7656735744166
 30
0.0
  0
VERTEX
  5
99
  8
DEFAULT
 10
-250.2101553294495
 20
-737.7656735744166
 30
0.0
  0
VERTEX
  5
9A
  8
DEFAULT
 10
-250.2101553294494
 20
-750.1783735744166
 30
0.0
  0
VERTEX
  5
9B
  8
DEFAULT
 10
-259.2101553294494
 20
-750.1783735744166
 30
0.0
  0
VERTEX
  5
9C
  8
DEFAULT
 10
-259.2101553294495
 20
-737.7656735744166
 30
0.0
  0
VERTEX
  5
9D
  8
DEFAULT
 10
-298.9925553294494
 20
-737.7656735744166
 30
0.0
  0
VERTEX
  5
9E
  8
DEFAULT
 10
-298.9925553294494
 20
-725.2256735744166
 30
0.0
  0
VERTEX
  5
9F
  8
DEFAULT
 10
-210.4277553294494
 20
-725.2256735744166
 30
0.0
  0
VERTEX
  5
A0
  8
DEFAULT
 10
-210.4277553294494
 20
-737.7656735744166
 30
0.0
  0
SEQEND
  5
A1
  8
DEFAULT
  0
POLYLINE
  5
A2
  8
DEFAULT
 66
     1
 10
0.0
 20
0.0
 30
0.0
 70
     1
  0
VERTEX
  5
A3
  8
DEFAULT
 10
-314.6637348727447
 20
-738.16368223067
 30
0.0
  0
VERTEX
  5
A4
  8
DEFAULT
 10
-289.2200772648976
 20
-756.2643448905638
 30
0.0
 42
0.155827523781734
  0
VERTEX
  5
A5
  8
DEFAULT
 10
-281.6842234081432
 20
-758.6713799302876
 30
0.0
  0
VERTEX
  5
A6
  8
DEFAULT
 10
-227.1851293163667
 20
-758.6713799302877
 30
0.0
 42
0.1558275237817468
  0
VERTEX
  5
A7
  8
DEFAULT
 10
-219.6492754596124
 20
-756.2643448905638
 30
0.0
  0
VERTEX
  5
A8
  8
DEFAULT
 10
-194.2056178517652
 20
-738.16368223067
 30
0.0
 42
0.2427194966086469
  0
VERTEX
  5
A9
  8
DEFAULT
 10
-188.7414717085196
 20
-727.5707172703941
 30
0.0
  0
VERTEX
  5
AA
  8
DEFAULT
 10
-188.7414717085197
 20
-691.6859485780209
 30
0.0
 42
0.2427194966086529
  0
VERTEX
  5
AB
  8
DEFAULT
 10
-194.2056178517651
 20
-681.0929836177447
 30
0.0
  0
VERTEX
  5
AC
  8
DEFAULT
 10
-219.6492754596123
 20
-662.9923209578508
 30
0.0
 42
0.1558275237817642
  0
VERTEX
  5
AD
  8
DEFAULT
 10
-227.1851293163667
 20
-660.5852859181269
 30
0.0
  0
VERTEX
  5
AE
  8
DEFAULT
 10
-281.6842234081429
 20
-660.585285918127
 30
0.0
 42
0.1558275237817831
  0
VERTEX
  5
AF
  8
DEFAULT
 10
-289.2200772648977
 20
-662.9923209578509
 30
0.0
  0
VERTEX
  5
B0
  8
DEFAULT
 10
-314.6637348727447
 20
-681.0929836177447
 30
0.0
 42
0.2427194966086599
  0
VERTEX
  5
B1
  8
DEFAULT
 10
-320.1278810159902
 20
-691.685948578021
 30
0.0
  0
VERTEX
  5
B2
  8
DEFAULT
 10
-320.1278810159902
 20
-727.5707172703937
 30
0.0
 42
0.2427194966086965
  0
SEQEND
  5
B3
  8
DEFAULT
  0
CIRCLE
  5
B4
  8
DEFAULT
 10
218.0374305785947
 20
-702.6287685659571
 30
0.0
 40
5.500000000000088
210
0.0
220
0.0
230
-1.0
  0
CIRCLE
  5
B5
  8
DEFAULT
 10
290.8319221459154
 20
-702.6287685659574
 30
0.0
 40
5.500000000000111
210
0.0
220
0.0
230
-1.0
  0
CIRCLE
  5
B6
  8
DEFAULT
 10
254.4344290133003
 20
-697.6287685659574
 30
0.0
 40
2.500000000000114
210
0.0
220
0.0
230
-1.0
  0
ENDSEC
  0
EOF
